<?xml version="1.0" standalone="no"?>
<!DOCTYPE svg PUBLIC "-//W3C//DTD SVG 20010904//EN"
 "http://www.w3.org/TR/2001/REC-SVG-20010904/DTD/svg10.dtd">
<svg version="1.0" xmlns="http://www.w3.org/2000/svg"
 width="16.000000pt" height="16.000000pt" viewBox="0 0 16.000000 16.000000"
 preserveAspectRatio="xMidYMid meet">
<metadata>
Created by potrace 1.11, written by Peter Selinger 2001-2013
</metadata>
<g transform="translate(0.000000,16.000000) scale(0.006154,-0.006154)"
fill="#000000" stroke="none">
<path d="M532 1613 l3 -748 28 -80 c61 -171 161 -301 319 -412 52 -36 161 -88
211 -99 9 -2 27 -7 40 -10 42 -11 262 -13 317 -3 69 13 147 55 165 88 l14 26
2 -25 c0 -14 0 -42 -1 -62 l-2 -38 217 0 216 0 -1 440 c-1 404 -3 446 -21 512
-72 267 -286 475 -552 538 -115 27 -209 24 -367 -12 -69 -15 -137 -31 -152
-34 l-28 -6 0 163 c0 90 -1 242 -1 337 l-1 172 -204 0 -205 0 3 -747z m921
-286 c74 -37 135 -98 172 -172 27 -53 30 -70 30 -150 0 -77 -4 -98 -27 -148
-34 -72 -98 -136 -174 -173 -52 -26 -70 -29 -149 -29 -117 1 -192 32 -265 112
-78 85 -92 135 -94 332 l-1 164 130 39 c72 21 141 42 155 47 14 4 57 8 95 7
55 -1 84 -8 128 -29z"/>
</g>
</svg>
