<svg xmlns="http://www.w3.org/2000/svg" viewBox="10941 2019.5 54.965 76.197">
  <defs>
    <style>
      .cls-1 {
        fill: #fff;
      }
    </style>
  </defs>
  <path id="Path_109" data-name="Path 109" class="cls-1" d="M56.621,388.133H41.967v49.194c.057,7.619,3.21,14.045,8.542,19.274a26.289,26.289,0,0,0,19.416,7.727c4.273-.037,9.774-.55,11.694-4.567v4.567H96.931v-29.5a26.209,26.209,0,0,0-7.978-17.38,26.48,26.48,0,0,0-19.522-7.735c-1.636.014-9.265,1.888-12.809,2.777V388.133Zm22.267,57.941a12.536,12.536,0,0,1-9.1,3.825,12.788,12.788,0,0,1-12.948-12.708l-.084-9.5c4.626-1.465,11.415-3.537,12.8-3.55a12.962,12.962,0,0,1,13.048,12.817A12.287,12.287,0,0,1,78.889,446.074Z" transform="translate(10899.033 1631.367)"/>
</svg>
