<svg xmlns="http://www.w3.org/2000/svg" width="121" height="130" viewBox="168.4 -1.4 121.2 130"><path d="M178.1 115.3c1-0.4 1.9-1.1 2.5-2 0.6-1 0.9-2.1 0.9-3.3 0-2.1-0.6-3.7-1.7-4.8 -1.1-1.1-2.8-1.6-5.1-1.6h-6.3V128.4h7c2.2 0 3.8-0.6 5-1.9 1.2-1.2 1.8-2.9 1.8-5.1 0-1.4-0.4-2.7-1.1-3.9C180.3 116.4 179.3 115.6 178.1 115.3zM170.3 105.3h4.3c1.6 0 2.8 0.4 3.6 1.1 0.8 0.7 1.2 1.9 1.2 3.5 0 1.5-0.4 2.7-1.2 3.5 -0.8 0.8-2 1.2-3.4 1.2h-4.5V105.3zM178.9 125.1c-0.9 0.9-2.2 1.4-3.5 1.4h-5.1v-10.1h5.4c1.2 0 2.4 0.5 3.3 1.4 0.8 0.9 1.2 2.1 1.2 3.6S179.8 124.2 178.9 125.1z"/><rect x="186.8" y="103.5" width="1.9" height="24.8"/><path d="M203.7 123.3h0.1c-0.7 2.3-2.2 3.5-4.6 3.5 -1 0-2-0.4-2.6-1.3 -0.6-0.9-0.9-2.1-0.9-3.8v-11.9h-1.9v11.9c0 2.2 0.4 3.9 1.3 5.1 0.9 1.2 2.1 1.7 3.8 1.7 2.2 0 3.8-0.8 4.9-2.5v2.2h1.8v-18.4h-1.9V123.3z"/><path d="M216.5 109.5c-1.9-0.1-3.7 0.8-4.9 2.3s-1.8 3.7-1.8 6.4v2.2c0 2.6 0.6 4.6 1.9 6.1 1.2 1.4 2.9 2.1 5.1 2.1 2.5 0 4.3-0.8 5.5-2.5l-1-1.3c-1.1 1.3-2.7 2-4.4 2 -1.6 0-2.9-0.6-3.8-1.7 -0.9-1.1-1.4-2.8-1.4-4.9v-1h10.9v-1.8c0-2.7-0.6-4.7-1.6-6C220 110.2 218.5 109.5 216.5 109.5zM220.8 117.5h-9c0.1-2 0.5-3.6 1.3-4.6 0.8-1.1 2.1-1.6 3.4-1.6 2.8 0 4.2 1.9 4.3 5.7V117.5z"/><path d="M240.6 103.5l-7.9 24.8h2l2.1-6.9h9.3l2.1 6.9h2l-7.9-24.8H240.6zM237.4 119.5l4.1-13.3 4.1 13.3H237.4z"/><rect x="253.8" y="103.5" width="1.9" height="24.8"/><path d="M267.6 109.5c-2.1 0-3.7 1-4.7 2.9v-8.9h-1.9v24.8h1.8l0.1-2.5c0.9 1.8 2.8 2.9 4.8 2.8 2 0 3.4-0.7 4.4-2.2s1.5-3.6 1.5-6.5v-2c0-2.8-0.5-4.9-1.5-6.3C271 110.2 269.5 109.5 267.6 109.5zM271.6 120.1c0 2.3-0.4 4-1.1 5.1 -0.7 1.1-1.8 1.6-3.3 1.6 -1 0-1.9-0.2-2.7-0.8s-1.4-1.3-1.7-2.2v-9.1c0.8-2.2 2.3-3.3 4.4-3.3 1.6 0 2.7 0.6 3.4 1.7 0.7 1.1 1 2.9 1 5.2V120.1z"/><path d="M289.1 124v-9c0-1.8-0.5-3.1-1.4-4.1 -1-0.9-2.4-1.4-4.2-1.4 -1.6-0.1-3.1 0.5-4.3 1.6 -1.1 1-1.7 2.4-1.7 3.8h1.9c0-1 0.4-2 1.1-2.6 0.8-0.7 1.8-1.1 2.9-1 1.3 0 2.2 0.3 2.9 0.9 0.6 0.6 1 1.5 1 2.8v2.6h-3.2c-2.2 0-3.9 0.5-5.1 1.6 -1.2 1.1-1.9 2.7-1.8 4.3 0 1.7 0.4 2.9 1.3 3.8 0.9 0.9 2.1 1.3 3.7 1.3 1 0 2-0.3 2.9-0.8 0.9-0.5 1.7-1.2 2.2-2.1 0 0.9 0.1 1.7 0.3 2.6h2v-0.2C289.3 127.2 289.1 125.8 289.1 124zM285.4 125.9c-0.9 0.6-1.9 0.9-3 0.9 -2.2 0-3.4-1.2-3.4-3.5 0-1.1 0.4-2.3 1.3-3s2.2-1.1 3.9-1.1h3v4.4h0.1C286.9 124.5 286.3 125.4 285.4 125.9z"/><path d="M228.6 23.3c-1.9 0-10.6 2.2-14.7 3.2V-1.4h-16.8V55c0.1 8.7 3.7 16.1 9.8 22.1 6.1 6 13.5 8.9 22.2 8.9 4.9 0 11.2-0.6 13.4-5.2V86h17.5V52.1c-0.6-7.8-3.6-14.4-9.1-19.9C244.8 26.2 237.4 23.3 228.6 23.3zM239.4 65c-2.7 2.8-6.5 4.4-10.4 4.4 -8.1 0.1-14.7-6.4-14.8-14.5v-0.1l-0.1-10.9c5.3-1.7 13.1-4.1 14.7-4.1 8.2-0.1 14.9 6.5 15 14.7C243.8 58.5 242.2 62.3 239.4 65z"/></svg>