<svg xmlns="http://www.w3.org/2000/svg" viewBox="78.9 -1.4 121.3 130"><path d="M88.7 115.3c1-0.4 1.9-1.1 2.5-2 0.6-1 0.9-2.1 0.9-3.3 0-2.1-0.6-3.7-1.7-4.8 -1.1-1.1-2.8-1.6-5.1-1.6h-6.3v24.8h7c2.2 0 3.8-0.6 5-1.9 1.2-1.2 1.8-2.9 1.8-5.1 0-1.4-0.4-2.7-1.1-3.9C90.9 116.4 89.9 115.6 88.7 115.3zM80.9 105.3h4.3c1.6 0 2.8 0.4 3.6 1.1 0.8 0.7 1.2 1.9 1.2 3.5 0 1.5-0.4 2.7-1.2 3.5 -0.8 0.8-2 1.2-3.4 1.2h-4.5V105.3zM89.5 125.1c-0.9 0.9-2.2 1.4-3.5 1.4h-5.1V116.4l5.4 0c1.2 0 2.4 0.5 3.3 1.4 0.8 0.9 1.2 2.1 1.2 3.6C90.8 122.9 90.4 124.2 89.5 125.1z"/><rect x="97.4" y="103.5" width="1.9" height="24.8"/><path d="M114.4 123.3c-0.7 2.3-2.2 3.5-4.6 3.5 -1 0-2-0.4-2.6-1.3 -0.6-0.9-0.9-2.1-0.9-3.8v-11.9h-1.9v11.9c0 2.2 0.4 3.9 1.3 5.1 0.9 1.2 2.1 1.7 3.8 1.7 2.2 0 3.8-0.8 4.9-2.5l0 2.2h1.8v-18.4h-1.9V123.3z"/><path d="M127.1 109.5c-1.9-0.1-3.7 0.8-4.9 2.3 -1.2 1.5-1.8 3.7-1.8 6.4v2.2c0 2.6 0.6 4.6 1.9 6.1 1.2 1.4 2.9 2.1 5.1 2.1 2.5 0 4.3-0.8 5.5-2.5l-1-1.3c-1.1 1.3-2.7 2-4.4 2 -1.6 0-2.9-0.6-3.8-1.7s-1.4-2.8-1.4-4.9v-1h10.9v-1.8c0-2.7-0.6-4.7-1.6-6C130.6 110.2 129.1 109.5 127.1 109.5zM131.4 117.5h-9c0.1-2 0.5-3.6 1.3-4.6 0.8-1.1 2.1-1.6 3.4-1.6h0c2.8 0 4.2 1.9 4.3 5.7V117.5z"/><path d="M151.2 103.5l-7.9 24.8h2l2.1-6.9h9.3l2.1 6.9h2l-7.9-24.8H151.2zM148 119.5l4.1-13.3 4.1 13.3H148z"/><rect x="164.4" y="103.5" width="1.9" height="24.8"/><path d="M178.2 109.5c-2.1 0-3.7 1-4.7 2.9v-8.9h-1.9v24.8h1.8l0.1-2.5c0.9 1.8 2.8 2.9 4.8 2.8 2 0 3.4-0.7 4.4-2.2s1.5-3.6 1.5-6.5v-2c0-2.8-0.5-4.9-1.5-6.3C181.6 110.2 180.1 109.5 178.2 109.5zM182.2 120.1c0 2.3-0.4 4-1.1 5.1 -0.7 1.1-1.8 1.6-3.3 1.6 -1 0-1.9-0.2-2.7-0.8 -0.8-0.6-1.4-1.3-1.7-2.2v-9.1c0.8-2.2 2.3-3.3 4.4-3.3 1.6 0 2.7 0.6 3.4 1.7 0.7 1.1 1 2.9 1 5.2V120.1z"/><path d="M199.7 124v-9c0-1.8-0.5-3.1-1.4-4.1 -1-0.9-2.4-1.4-4.2-1.4 -1.6-0.1-3.1 0.5-4.3 1.6 -1.1 1-1.7 2.4-1.7 3.8l1.9 0c0-1 0.4-2 1.1-2.6 0.8-0.7 1.8-1.1 2.9-1 1.3 0 2.2 0.3 2.9 0.9 0.6 0.6 1 1.5 1 2.8v2.6h-3.2c-2.2 0-3.9 0.5-5.1 1.6 -1.2 1.1-1.9 2.7-1.8 4.3 0 1.7 0.4 2.9 1.3 3.8 0.9 0.9 2.1 1.3 3.7 1.3 1 0 2-0.3 2.9-0.8 0.9-0.5 1.7-1.2 2.2-2.1 0 0.9 0.1 1.7 0.3 2.6h2v-0.2C199.9 127.2 199.7 125.8 199.7 124zM197.9 123.6c-0.4 0.9-1 1.8-1.9 2.3 -0.9 0.6-1.9 0.9-3 0.9h0c-2.2 0-3.4-1.2-3.4-3.5 0-1.1 0.4-2.3 1.3-3 0.9-0.7 2.2-1.1 3.9-1.1h3V123.6z"/><path d="M139.2 23.3c-1.9 0-10.6 2.2-14.7 3.2V-1.4h-16.8v56.4c0.1 8.7 3.7 16.1 9.8 22.1 6.1 6 13.5 8.9 22.2 8.9 4.9 0 11.2-0.6 13.4-5.2v5.2h17.5V52.1c-0.6-7.8-3.6-14.4-9.1-19.9C155.4 26.2 148 23.3 139.2 23.3zM150 65L150 65c-2.7 2.8-6.5 4.4-10.4 4.4 -8.1 0.1-14.7-6.4-14.8-14.5 0 0 0-0.1 0-0.1l-0.1-10.9c5.3-1.7 13.1-4.1 14.7-4.1 8.2-0.1 14.9 6.5 15 14.7C154.4 58.5 152.8 62.3 150 65z"/></svg>