<svg xmlns="http://www.w3.org/2000/svg" viewBox="10829.776 313.164 298.137 319.58">
  <defs>
    <style>
      .cls-1 {
        fill: #fff;
      }
    </style>
  </defs>
  <g id="logo" transform="translate(10829.691 -74.969)">
    <g id="Group_23" data-name="Group 23" transform="translate(0.085 645.966)">
      <path id="Path_97" data-name="Path 97" class="cls-1" d="M.085,601.849V540.941H15.52q8.243,0,12.488,4.034t4.247,11.892a15.033,15.033,0,0,1-2.177,8.156,12.377,12.377,0,0,1-6.024,5.013,12.078,12.078,0,0,1,7.173,5.173,16.458,16.458,0,0,1,2.742,9.474q0,7.96-4.352,12.557t-12.339,4.608Zm4.768-33.633H15.941q5.436,0,8.448-2.887t3.012-8.575q0-5.814-2.949-8.555t-8.931-2.74H4.853Zm0,4.352v24.849H17.486a11.176,11.176,0,0,0,8.577-3.354q3.138-3.351,3.137-9.3,0-5.536-2.907-8.8a10.631,10.631,0,0,0-8.1-3.391Z" transform="translate(-0.085 -540.941)"/>
      <path id="Path_98" data-name="Path 98" class="cls-1" d="M31.669,601.849H26.985V540.941h4.684v60.908Z" transform="translate(18.403 -540.941)"/>
      <path id="Path_99" data-name="Path 99" class="cls-1" d="M61.686,590.079q-3.85,6.237-11.921,6.233-6.15,0-9.287-4.266T37.3,579.5V550.215h4.6v29.157q0,6.15,2.175,9.329a7.141,7.141,0,0,0,6.275,3.179q8.785,0,11.253-8.533V550.215h4.686v45.26H61.772Z" transform="translate(25.492 -534.567)"/>
      <path id="Path_100" data-name="Path 100" class="cls-1" d="M77.638,596.653q-7.99,0-12.508-5.229t-4.6-14.892v-5.523q0-9.957,4.352-15.625a14.254,14.254,0,0,1,11.963-5.666q7.362,0,11.232,4.812t3.953,14.725V573.6H65.13v2.553q0,7.78,3.326,12.005t9.392,4.227a13.508,13.508,0,0,0,10.834-4.895l2.426,3.1Q86.674,596.652,77.638,596.653Zm-.8-42.584a9.968,9.968,0,0,0-8.428,3.869q-2.951,3.867-3.241,11.315H87.386v-1.212Q87.049,554.068,76.842,554.068Z" transform="translate(41.458 -534.907)"/>
      <path id="Path_101" data-name="Path 101" class="cls-1" d="M126.9,584.824H104.064l-5.187,17.025H93.9l19.409-60.908h4.434l19.409,60.908h-4.978Zm-21.456-4.476h20.077l-10.039-32.671Z" transform="translate(64.394 -540.941)"/>
      <path id="Path_102" data-name="Path 102" class="cls-1" d="M129.277,601.849h-4.684V540.941h4.684Z" transform="translate(85.489 -540.941)"/>
      <path id="Path_103" data-name="Path 103" class="cls-1" d="M165.895,581.353q0,10.458-3.66,15.895t-10.9,5.44a12.672,12.672,0,0,1-11.84-6.9l-.209,6.064H134.98V540.942h4.6v21.964q3.807-7.15,11.673-7.154,7.32,0,10.917,5.166t3.724,15.417v5.018Zm-4.643-4.225q0-8.617-2.551-12.759t-8.366-4.139q-7.74,0-10.751,8.156v22.421a11.965,11.965,0,0,0,4.184,5.5,11.238,11.238,0,0,0,6.651,1.944q5.561,0,8.177-4.038t2.656-12.57v-4.517Z" transform="translate(92.628 -540.941)"/>
      <path id="Path_104" data-name="Path 104" class="cls-1" d="M184.336,595.817a29.2,29.2,0,0,1-.837-6.275,14.86,14.86,0,0,1-5.377,5.248,14.212,14.212,0,0,1-7.131,1.863q-5.859,0-9.12-3.305t-3.265-9.412a13.165,13.165,0,0,1,4.539-10.54q4.541-3.89,12.532-3.93h7.778v-6.319q0-4.852-2.4-6.965T174,554.068a10.1,10.1,0,0,0-7.068,2.509,8.364,8.364,0,0,0-2.762,6.484l-4.645-.04a12.372,12.372,0,0,1,4.183-9.433,14.872,14.872,0,0,1,10.5-3.869q6.818,0,10.333,3.43t3.513,10v22.214q0,6.651,1.213,9.955v.5h-4.935Zm-12.759-3.64a12.651,12.651,0,0,0,7.257-2.133,12.41,12.41,0,0,0,4.622-5.691v-11h-7.36q-6.363.083-9.58,2.823a9.2,9.2,0,0,0-3.221,7.385Q163.293,592.178,171.576,592.177Z" transform="translate(108.867 -534.908)"/>
    </g>
    <path id="Path_105" data-name="Path 105" class="cls-1" d="M83.243,388.133H41.967V526.7c.16,21.461,9.042,39.56,24.061,54.287q22.427,22.055,54.687,21.764c12.035-.1,27.53-1.549,32.938-12.864v12.864h43.129V519.655q-2.05-28.792-22.471-48.952-22.515-22.055-54.987-21.786c-4.608.04-26.1,5.318-36.08,7.822V388.133Zm62.719,163.2a35.309,35.309,0,0,1-25.622,10.773,36.019,36.019,0,0,1-36.469-35.794l-.238-26.757c13.031-4.127,32.152-9.964,36.066-10a36.508,36.508,0,0,1,36.751,36.1A34.609,34.609,0,0,1,145.962,551.334Z" transform="translate(28.786 0)"/>
  </g>
</svg>
