<?xml version="1.0" standalone="no"?>
<!DOCTYPE svg PUBLIC "-//W3C//DTD SVG 20010904//EN"
 "http://www.w3.org/TR/2001/REC-SVG-20010904/DTD/svg10.dtd">
<svg version="1.0" xmlns="http://www.w3.org/2000/svg"
 width="16.000000pt" height="16.000000pt" viewBox="0 0 16.000000 16.000000"
 preserveAspectRatio="xMidYMid meet">
<metadata>
Created by potrace 1.11, written by Peter Selinger 2001-2013
</metadata>
<g transform="translate(0.000000,16.000000) scale(0.001538,-0.001538)"
fill="#000000" stroke="none">
<path d="M1453 6913 c2 -1919 7 -3508 10 -3533 4 -25 12 -83 18 -130 9 -77 17
-123 34 -215 3 -16 8 -43 11 -60 3 -16 10 -46 15 -65 6 -19 12 -48 15 -63 3
-15 17 -65 30 -110 14 -45 27 -89 29 -97 6 -25 55 -162 77 -215 11 -27 26 -63
33 -80 35 -84 73 -167 106 -230 57 -108 119 -222 131 -239 32 -47 138 -210
138 -213 0 -3 6 -10 13 -18 6 -7 21 -25 32 -41 32 -45 128 -169 134 -174 4 -3
26 -30 51 -60 91 -112 340 -367 465 -477 33 -29 67 -59 75 -66 8 -7 35 -29 60
-48 25 -19 47 -37 48 -41 2 -5 10 -8 18 -8 8 0 14 -3 14 -7 0 -5 17 -19 38
-33 20 -14 39 -28 42 -31 6 -8 190 -129 196 -129 2 0 27 -15 56 -34 29 -18 78
-46 108 -61 30 -15 58 -32 61 -37 3 -4 14 -10 25 -13 10 -2 56 -22 101 -44 45
-23 86 -41 90 -41 4 0 22 -7 38 -16 56 -30 329 -126 345 -122 3 1 15 -4 28
-11 13 -7 31 -14 40 -16 9 -2 53 -12 98 -24 45 -11 90 -22 100 -24 10 -2 30
-6 44 -10 39 -9 131 -26 173 -32 20 -3 52 -7 70 -10 273 -41 883 -41 1147 1
19 3 51 7 71 9 95 9 279 53 409 100 250 89 444 242 545 429 11 20 22 36 25 36
3 0 5 -136 5 -303 l0 -302 1048 -1 1047 -2 -3 2082 c-2 1144 -6 2097 -10 2116
-3 19 -9 62 -12 95 -6 50 -19 125 -61 335 -4 21 -10 45 -30 115 -2 6 -10 37
-19 70 -25 93 -67 214 -110 320 -4 11 -9 25 -11 30 -9 31 -53 128 -63 138 -6
6 -11 16 -11 22 0 11 -101 217 -111 225 -3 3 -20 31 -37 63 -52 95 -252 390
-282 417 -3 3 -35 41 -70 85 -65 79 -376 398 -416 425 -12 8 -44 35 -71 60
-28 25 -63 54 -79 65 -42 30 -89 69 -92 78 -2 4 -10 7 -17 7 -7 0 -15 3 -17 8
-1 4 -30 25 -63 47 -33 22 -61 43 -63 48 -2 4 -7 7 -12 7 -5 0 -36 18 -69 40
-33 22 -65 40 -71 40 -5 0 -10 4 -10 8 0 4 -15 15 -32 23 -65 31 -193 99 -205
109 -7 5 -15 10 -19 10 -4 0 -32 12 -63 26 -31 14 -69 32 -86 39 -16 6 -52 21
-80 33 -142 59 -414 145 -532 167 -10 2 -18 4 -18 6 0 1 -9 3 -20 4 -11 2 -33
6 -50 9 -68 15 -170 33 -230 41 -78 11 -95 13 -170 21 -100 10 -501 11 -560 0
-27 -5 -61 -10 -75 -11 -14 -1 -25 -3 -25 -4 0 -1 -16 -4 -35 -7 -19 -2 -78
-13 -130 -24 -52 -11 -106 -21 -120 -24 -14 -2 -47 -10 -75 -16 -27 -6 -61
-14 -75 -16 -14 -3 -34 -8 -45 -11 -11 -4 -22 -7 -25 -8 -5 -1 -52 -10 -95
-19 -11 -2 -78 -18 -149 -35 -70 -17 -138 -33 -150 -36 -11 -2 -41 -9 -66 -16
-25 -6 -54 -13 -65 -15 -48 -9 -67 -14 -185 -44 -69 -17 -137 -34 -152 -36
-14 -3 -56 -13 -92 -24 -36 -10 -68 -15 -70 -12 -2 4 -4 743 -4 1642 -1 899
-1 1645 -1 1658 l-1 22 -1000 0 -1000 0 3 -3487z m4012 -1447 c72 -11 111 -18
127 -22 10 -3 28 -7 40 -10 13 -2 33 -6 44 -8 65 -13 249 -83 342 -129 128
-64 213 -118 326 -207 43 -34 174 -159 216 -207 64 -73 200 -261 200 -277 0
-3 16 -31 34 -62 19 -32 33 -61 30 -66 -3 -4 -1 -8 4 -8 9 0 71 -148 93 -222
29 -98 56 -209 64 -268 19 -128 24 -376 11 -475 -11 -74 -34 -195 -45 -232 -5
-18 -7 -33 -4 -33 3 0 1 -6 -4 -12 -6 -7 -13 -25 -17 -40 -3 -15 -11 -40 -18
-55 -6 -15 -12 -30 -12 -33 -3 -16 -40 -106 -46 -110 -3 -3 -12 -21 -20 -40
-22 -55 -97 -176 -168 -272 -84 -111 -309 -332 -381 -372 -9 -5 -18 -12 -21
-16 -12 -17 -256 -161 -280 -165 -3 0 -27 -11 -55 -24 -102 -46 -259 -89 -420
-116 -108 -18 -461 -13 -570 8 -128 24 -307 74 -340 95 -5 4 -16 7 -23 8 -29
5 -212 101 -297 158 -262 172 -470 407 -616 696 -29 59 -89 212 -89 230 0 9
-3 20 -7 24 -4 3 -8 12 -9 19 -1 7 -9 39 -17 72 -19 73 -26 108 -33 160 -3 22
-7 51 -10 65 -5 21 -7 158 -14 763 0 45 0 55 0 132 1 70 1 78 -3 100 -2 11 -1
32 4 48 4 15 5 27 1 27 -4 0 -7 90 -7 201 l0 201 75 24 c41 14 82 27 90 29 37
9 178 54 205 65 17 6 30 10 30 9 0 -3 101 27 160 47 22 7 74 23 115 35 41 12
95 27 120 35 42 12 72 21 203 59 70 21 158 46 177 50 8 2 15 4 15 5 0 1 7 3
15 5 8 2 67 18 130 35 122 33 143 38 175 44 11 2 48 11 83 20 34 9 67 14 72
11 5 -3 11 -1 15 4 5 9 245 7 310 -3z"/>
</g>
</svg>
